<?xml version="1.0" encoding="utf-8"?>
<!-- Generated by Mocodo 4.2.4 -->
<svg width="296" height="136" viewBox="0 0 296 136" xmlns="http://www.w3.org/2000/svg">
<rect x="0" y="0" width="296" height="136" fill="#f7f7f7" stroke="none" stroke-width="0"/>

<!-- Association PIVOT -->
<g>
	<line x1="53" y1="68" x2="152" y2="68" stroke="#8073ac" stroke-width="2"/>
	<line x1="247" y1="68" x2="152" y2="68" stroke="#8073ac" stroke-width="2"/>
	<polygon points="207 68 195 74 199 68 195 62" fill="#8073ac" stroke-width="0"/>
	<g>
		<path d="M161 43 a14 14 90 0 1 14 14 V68 h-46 V57 a14 14 90 0 1 14 -14" fill="#b2abd2" stroke="#b2abd2" stroke-width="0"/>
		<path d="M175 68 v11 a14 14 90 0 1 -14 14 H143 a14 14 90 0 1 -14 -14 V68 H46" fill="#d8daeb" stroke="#d8daeb" stroke-width="0"/>
		<rect x="129" y="43" width="46" height="50" fill="none" rx="14" stroke="#8073ac" stroke-width="2"/>
		<line x1="129" y1="68" x2="175" y2="68" stroke="#8073ac" stroke-width="1"/>
		<text x="137" y="60.75" fill="#000000" font-family="Verdana" font-size="12">Pivot</text>
	</g>
	<text x="102" y="85" fill="#b35806" font-family="Verdana" font-size="12">0,N</text>
	<text x="180" y="85" fill="#b35806" font-family="Verdana" font-size="12">1,N</text>
</g>

<!-- Entity CATEGORIES -->
<g>
	<g>
		<rect x="9" y="9" width="88" height="25" fill="#fdb863" stroke="none" stroke-width="0" opacity="1"/>
		<rect x="9" y="34" width="88" height="93" fill="#fee0b6" stroke="none" stroke-width="0" opacity="1"/>
		<rect x="9" y="9" width="88" height="118" fill="none" stroke="#e08214" stroke-width="2" opacity="1"/>
		<line x1="9" y1="34" x2="97" y2="34" stroke="#e08214" stroke-width="1"/>
	</g>
	<text x="21" y="26.75" fill="#000000" font-family="Verdana" font-size="12">Catégories</text>
	<text x="14" y="51.8" fill="#000000" font-family="Verdana" font-size="12">num_cat</text>
	<line x1="14" y1="54" x2="68" y2="54" stroke="#000000" stroke-width="1"/>
	<text x="14" y="68.8" fill="#000000" font-family="Verdana" font-size="12">label</text>
	<text x="14" y="85.8" fill="#000000" font-family="Verdana" font-size="12">allow_Delete</text>
	<text x="14" y="102.8" fill="#000000" font-family="Verdana" font-size="12">created_at</text>
	<text x="14" y="119.8" fill="#000000" font-family="Verdana" font-size="12">updated_at</text>
</g>

<!-- Entity NOTES -->
<g>
	<g>
		<rect x="207" y="9" width="80" height="25" fill="#fdb863" stroke="none" stroke-width="0" opacity="1"/>
		<rect x="207" y="34" width="80" height="93" fill="#fee0b6" stroke="none" stroke-width="0" opacity="1"/>
		<rect x="207" y="9" width="80" height="118" fill="none" stroke="#e08214" stroke-width="2" opacity="1"/>
		<line x1="207" y1="34" x2="287" y2="34" stroke="#e08214" stroke-width="1"/>
	</g>
	<text x="230" y="26.75" fill="#000000" font-family="Verdana" font-size="12">Notes</text>
	<text x="212" y="51.8" fill="#000000" font-family="Verdana" font-size="12">num_note</text>
	<line x1="212" y1="54" x2="274" y2="54" stroke="#000000" stroke-width="1"/>
	<text x="212" y="68.8" fill="#000000" font-family="Verdana" font-size="12">title</text>
	<text x="212" y="85.8" fill="#000000" font-family="Verdana" font-size="12">description</text>
	<text x="212" y="102.8" fill="#000000" font-family="Verdana" font-size="12">created_at</text>
	<text x="212" y="119.8" fill="#000000" font-family="Verdana" font-size="12">updated_at</text>
</g>
</svg>